<svg xmlns="http://www.w3.org/2000/svg" viewBox="0 0 260 64" role="img" aria-labelledby="logoTitle logoDesc">
  <title id="logoTitle">Saúde Guardiã</title>
  <desc id="logoDesc">Marca textual da plataforma Saúde Guardiã</desc>
  <defs>
    <linearGradient id="shieldGradient" x1="0%" y1="0%" x2="100%" y2="100%">
      <stop offset="0%" stop-color="#f97316" />
      <stop offset="100%" stop-color="#2563eb" />
    </linearGradient>
  </defs>
  <g fill="none" fill-rule="evenodd" transform="translate(8 8)">
    <path d="M40 3c-6.4 0-12.8 2.4-18.4 7.1C15 14.8 10.9 20.9 9.2 28.2c-1.2 5.4-.9 10.7 1 15.5C12 49.1 15 52.7 18.9 55c4.2 2.6 9.3 3.9 15.1 3.9 5.8 0 10.8-1.3 15-3.9 3.9-2.3 7-5.9 8.8-11.3 1.9-4.8 2.2-10.1 1-15.5-1.7-7.3-5.8-13.4-12.4-18.1C52.8 5.4 46.4 3 40 3z" fill="url(#shieldGradient)" opacity=".92" />
    <path d="M40.2 12.4c-4.3 0-8.6 1.6-12.3 4.7-3.7 3.1-6.4 7.2-7.5 11.9-.9 4-.7 7.7.6 11 1.3 3.3 3.6 5.9 6.8 7.8 3.3 2 7.2 3 11.6 3 4.4 0 8.2-1 11.5-3 3.2-1.9 5.5-4.5 6.8-7.8 1.3-3.3 1.5-7 0.6-11-1.1-4.7-3.8-8.8-7.5-11.9-3.7-3.1-8-4.7-12.3-4.7z" fill="#fff" opacity=".92" />
    <path d="M40.2 18.5c-3 0-5.9 1.1-8.4 3.2-2.5 2.1-4.3 4.9-5 8-.6 2.7-.4 5.2.4 7.4.8 2.2 2.4 4 4.7 5.4 2.3 1.4 5.1 2.2 8.3 2.2 3.2 0 6-0.8 8.3-2.2 2.3-1.4 3.9-3.2 4.7-5.4.8-2.2.9-4.7.4-7.4-.7-3.1-2.4-5.9-5-8-2.5-2.1-5.4-3.2-8.4-3.2z" fill="#1f2937" />
    <path d="M40.2 27c-1.7 0-3.3.6-4.7 1.7-1.4 1.1-2.4 2.5-2.8 4.2-.3 1.4-.2 2.7.2 3.8.5 1.1 1.3 2 2.6 2.7 1.2.7 2.7 1.1 4.4 1.1 1.7 0 3.2-.4 4.4-1.1 1.3-.7 2.1-1.6 2.6-2.7.4-1.1.5-2.4.2-3.8-.4-1.7-1.4-3.1-2.8-4.2-1.4-1.1-3-1.7-4.7-1.7z" fill="#fff" />
  </g>
  <g transform="translate(96 32)" fill="#1f2937" font-family="'Inter', 'Segoe UI', sans-serif" font-size="26" font-weight="700" dominant-baseline="middle">
    <text>Saúde Guardiã</text>
  </g>
</svg>
